<svg xmlns="http://www.w3.org/2000/svg" width="671.06" height="288.35" viewBox="0 0 671.06 288.35"><path d="M69.13 143.47c-.76 3.72-2.54 7.08-5.36 10.09-2.82 3.01-6.34 5.34-10.56 7-1.29.51-2.62.93-4.01 1.25-1.38.32-2.93.57-4.65.76-1.72.19-3.66.33-5.81.43-2.16.1-4.69.14-7.58.14l-23.89-.02 13.69-67.25 24.63.02c2.9 0 5.34.04 7.3.1 1.96.07 3.66.18 5.08.34 1.42.16 2.65.4 3.71.72 1.06.32 2.12.74 3.2 1.25 5.52 2.63 7.65 7.06 6.38 13.27-.72 3.52-2.36 6.44-4.94 8.74-2.58 2.3-6.49 4.38-11.73 6.23 1.66.19 3.17.52 4.52.96 1.35.45 2.59.96 3.72 1.54 2.66 1.41 4.55 3.34 5.66 5.77 1.1 2.45 1.32 5.34.64 8.66zm-20.75-1.36c.39-1.92.31-3.57-.23-4.95-.55-1.38-1.55-2.39-3.01-3.03-.66-.32-1.53-.53-2.61-.63-1.07-.1-2.57-.15-4.49-.15h-3.97l-3.85 18.93h2.98c2.58 0 4.58-.15 6.01-.47 1.42-.32 2.79-.93 4.1-1.82 2.7-1.93 4.4-4.55 5.07-7.88zM52 114.15c.33-1.6.23-2.98-.29-4.13s-1.39-1.99-2.6-2.5c-.61-.26-1.38-.43-2.31-.53-.94-.1-2.29-.15-4.07-.15h-3.26l-3.19 15.66h2.67c1.91 0 3.49-.11 4.76-.33 1.26-.22 2.38-.62 3.35-1.2 1.27-.77 2.35-1.76 3.22-2.98.87-1.21 1.45-2.5 1.72-3.84zM114.24 164.37l-5.96-27.49-5.33-.01-5.35 26.33-20.73-.02 13.69-67.25 26.85.03c2.96 0 5.5.07 7.61.2s3.94.34 5.5.63c1.55.29 2.91.68 4.06 1.16 1.15.48 2.21 1.11 3.17 1.88 2.16 1.67 3.63 3.83 4.4 6.49.77 2.66.83 5.62.17 8.89-1.66 8.14-7.16 14.31-16.51 18.53l10.6 28.46-22.17 2.17zm8.38-47.94c.34-1.67.35-3.12.05-4.37-.31-1.25-.92-2.19-1.84-2.84-.75-.51-1.75-.88-2.98-1.11-1.24-.23-2.94-.34-5.11-.34h-3.85l-3.72 18.25h3.65c2.5 0 4.44-.16 5.82-.47 1.38-.32 2.62-.93 3.73-1.82 1.02-.83 1.91-1.89 2.67-3.17.75-1.28 1.28-2.66 1.58-4.13zM188.7 163.29l-2.14-16.14-21.42-.02-10 16.13-16.19-.02 41.82-67.23 17.47.02 12.47 67.28-22.01-.02zm-5.87-47.77l-12.08 21.03 14.71.01-2.63-21.04zM291.35 128.02c-1.26 6.21-3.71 11.83-7.33 16.86s-8.15 9.07-13.58 12.14c-3.88 2.24-8.09 3.85-12.63 4.84-4.54.99-9.81 1.48-15.8 1.47l-23-.02 13.69-67.25 21.81.02c2.43 0 4.41 0 5.92.01 1.58 0 2.91.04 3.98.1 1.07.07 2.04.16 2.9.29.86.13 1.87.29 3.01.48 4.12.77 7.69 2.06 10.72 3.85 3.02 1.8 5.43 4.03 7.23 6.69 1.79 2.66 2.96 5.72 3.51 9.18.54 3.47.4 7.25-.43 11.34zm-21.8.36c.79-3.86.85-7.24.19-10.14-.66-2.9-2.08-5.15-4.25-6.76-1.32-.96-2.81-1.66-4.46-2.08-1.66-.42-3.87-.63-6.63-.63h-3.55l-8.53 41.89h3.16c3.36 0 6.17-.33 8.45-1.01 2.27-.67 4.37-1.81 6.27-3.42 2.14-1.8 4.05-4.31 5.73-7.52 1.67-3.22 2.88-6.66 3.62-10.33zM369.52 129.54c-1 4.93-2.75 9.53-5.22 13.79-2.48 4.26-5.52 7.97-9.13 11.14-3.61 3.17-7.71 5.65-12.32 7.44s-9.51 2.68-14.71 2.68c-5.2-.01-9.74-.91-13.62-2.7-3.88-1.8-7-4.25-9.36-7.36-2.36-3.11-3.92-6.79-4.66-11.05-.75-4.26-.62-8.86.39-13.79 1.03-5.06 2.85-9.72 5.46-13.98s5.79-7.92 9.54-10.99 7.95-5.45 12.61-7.15c4.66-1.69 9.58-2.54 14.78-2.53 4.74 0 8.95.87 12.65 2.61 3.7 1.73 6.73 4.14 9.09 7.22 2.37 3.08 3.96 6.73 4.78 10.96.82 4.2.73 8.78-.28 13.71zm-21.83.56c1.46-7.17 1.5-12.48.13-15.9-1.38-3.43-4.23-5.15-8.58-5.15-2.76 0-5.11.7-7.04 2.11-1.93 1.41-3.55 3.15-4.87 5.23-1.31 2.08-2.35 4.34-3.1 6.77-.76 2.43-1.34 4.64-1.74 6.63-.42 2.05-.74 4.29-.97 6.73-.23 2.44-.12 4.69.35 6.78.46 2.08 1.38 3.81 2.74 5.19 1.36 1.38 3.46 2.07 6.29 2.07 8.41 0 14.02-6.82 16.79-20.46zM423.03 163.52l-23.55-38.08-7.74 38.05-16.29-.02 13.69-67.25 14.41.01 22.4 37.4 7.61-37.37 16.29.02-13.69 67.25-13.13-.01z"/><path d="M654.39 27.1c3.33-6.67 7.67-12 7.67-15s-.67-3.33-1.67-3-5.33 3.33-8 4.33-8 6.33-14.67 14.33-19.67 11-23.33 12.33c-3.66 1.33-5.33 4-11 .67S578.06 30.1 556.73 27.1s-47.67-2-63 .33-61.67 18-65.33 18.67-23.67-.33-29.67-1.67c-4.95-1.1-21.32-4.74-26.92-5.99-32.9-8.4-70.56-13.18-110.58-13.18-28.05 0-54.93 2.34-79.83 6.64 18.44-2.05 37.76-3.14 57.67-3.14 128.31 0 232.33 45.22 232.33 101s-104.02 101-232.33 101c-64.09 0-122.12-11.28-164.15-29.53 42.48 26.73 110.12 44.03 186.32 44.03 63.71 0 121.43-12.09 163.47-31.68 27.03-13.82 36.7-17.49 59.7-32.82 9.88-6.59 21-20.25 27-26.75s10.5-9 14-11.75 5.75 3.5 10.75 8.5 6.25 9.25 12.25 17.5 19.75 31.25 25.25 40 10.75 17.5 11.75 20 .75 10.25.25 13 1.75 8.25 3 11.25-.25 7 0 10.75 10.75 7.25 13 8 6.5.5 9.25-.5 2.5-1.75 4-3.75 2.5-1.25 3.5-.5 2.75.75 6-.25 3 .5 8.25-2 10.5-6.5 15.25-12.75 4-18.75 3-22.75-2.25-2.5-2.5-6.25.25-4.75.25-8.75-.5-8.75-1.75-16.75-1.75-17.5-2.38-19.75-1.5-4-1.75-6.75.12-45.12.12-47.88-.25-4.12-.38-5c-.13-.88-1.88-2.88-2.12-4-.24-1.12.25-3.62.88-6.62.25 1.75.38 3.12.62 4.88.24 1.76.88 3.38 1.62 4.12.74.74.88 1.41 1.54 4.75.67 3.33 1.33 4.67 1.33 4.67 1.33 2 3-3 3.33-7s1.67-5.67 2-11.67 0-12.33-.33-18.33-2.67-19.67-4-23.33-5.33-8.67-6.67-11.67 0-4.67 1-7.33 9.34-12.33 12.67-19z" fill="#E42830"/><path d="M296.52 245.74l-7.34 31.71H277.58c-.59 0-1.02-.11-1.29-.31-.27-.21-.36-.51-.27-.89.15-.63.57-1.05 1.28-1.25.58-.17.92-.27 1.02-.31s.22-.13.35-.27c.25-.25.44-.64.57-1.19l5.38-23.25c.13-.54.12-.94-.02-1.18-.07-.14-.14-.23-.22-.27s-.37-.14-.88-.31c-.61-.2-.84-.62-.7-1.25.09-.39.32-.69.69-.89.37-.2.85-.31 1.44-.31h.64l10.95-.03zm-5.12 31.71l.58-2.51c1.1-.15 2.04-.37 2.8-.65.76-.28 1.56-.71 2.4-1.28.84-.57 1.54-1.17 2.1-1.78.56-.61 1.15-1.42 1.76-2.43.3-.5.56-.83.8-1.01.24-.18.53-.27.88-.27.46 0 .75.13.87.38.12.26.11.7-.04 1.33l-1.9 8.2-10.25.02zm3.27-14.8l.62-2.7c1.05-.43 1.87-.91 2.45-1.42.58-.51 1.07-1.19 1.48-2.04.27-.59.53-.99.8-1.22.26-.22.59-.34.99-.34.53 0 .84.19.95.58.07.2.02.66-.15 1.37l-2.05 8.85c-.17.73-.37 1.23-.61 1.51s-.59.42-1.05.42c-.38 0-.65-.11-.81-.33s-.25-.58-.26-1.09c-.03-1.07-.24-1.89-.63-2.46-.37-.56-.95-.94-1.73-1.13zm4.04-16.91h9.93l-1.9 8.22c-.11.48-.29.83-.54 1.05s-.58.33-1.01.33c-.36 0-.61-.07-.74-.21-.13-.14-.22-.43-.27-.86-.21-1.8-.81-3.17-1.79-4.11-.99-.95-2.42-1.51-4.3-1.7l.62-2.72zM325.34 247.63c-.9.28-1.58.66-2.04 1.14-.46.48-.79 1.18-1.01 2.11l-4.8 20.77c-.32 1.36-.34 2.32-.08 2.88.2.46.69.8 1.47 1l-.59 2.55c-3.58-.28-6.34-1.57-8.27-3.88-2.51-3.01-3.14-7.19-1.89-12.57.62-2.7 1.61-5.13 2.96-7.31 1.35-2.18 3.03-4.02 5.04-5.54 1.53-1.16 3.1-2.04 4.7-2.65 1.6-.6 3.3-.94 5.09-1.02l-.58 2.52zm4.23 27.18c.48.57 1.21.86 2.22.86.58 0 1.12-.1 1.62-.3.45-.17.76-.25.92-.25.2 0 .36.1.48.31s.16.44.1.68c-.11.5-.63 1.01-1.54 1.56-1.63.94-3.19 1.42-4.69 1.42-1.97 0-3.41-.57-4.31-1.72-1.19.37-2.54.62-4.06.74l.6-2.58c.38-.08.66-.16.86-.25.19-.08.42-.23.68-.43l-.15-.19c-.33-.51-.6-.86-.84-1.06-.23-.19-.54-.32-.92-.38-.49-.09-.8-.17-.92-.22-.13-.05-.22-.15-.29-.29-.12-.19-.15-.41-.09-.67.1-.43.38-.77.83-1.02.45-.25 1.01-.37 1.69-.37.54 0 1 .05 1.36.14s.73.25 1.11.49l4.72-20.4c.19-.82.19-1.47.01-1.95-.12-.33-.3-.58-.52-.77-.23-.19-.58-.36-1.05-.54l.58-2.51c1.76.08 3.3.42 4.63 1.02s2.49 1.49 3.49 2.65c2.63 3.1 3.32 7.39 2.05 12.87-1.34 5.67-4.18 10.05-8.57 13.16zM341.87 268.19l4.21-18.21c.13-.54.12-.94-.02-1.18-.07-.14-.14-.23-.22-.27s-.37-.14-.88-.31c-.61-.2-.84-.61-.7-1.23.09-.4.32-.71.69-.92s.85-.31 1.44-.31H358.66l.87.09c.26.08.46.22.59.42.13.2.17.44.11.72-.14.62-.57 1.03-1.27 1.23-.58.17-.92.27-1.02.31-.1.04-.22.13-.35.27-.25.25-.44.64-.57 1.18l-4.51 19.49c-.3 1.32-.48 2.23-.53 2.75-.05.52 0 .99.13 1.41.12.39.3.67.52.84s.68.36 1.37.58l-.7 3.04h-.54c-2.13 0-3.87-.18-5.2-.54-1.56-.42-2.87-1.04-3.93-1.86-1.06-.82-1.73-1.74-2.02-2.76-.31-1.08-.22-2.66.26-4.74zm13.7 9.91l.7-3.04c1.69-.2 3.21-.83 4.55-1.9 1.53-1.22 2.56-2.98 3.09-5.27l3.5-15.15c.49-2.12-.03-3.6-1.56-4.44-.45-.25-.74-.46-.85-.64-.11-.18-.13-.44-.05-.78.09-.4.31-.69.67-.86.35-.17.88-.25 1.59-.25h6.04c.51 0 .85.01 1.01.04.17.02.32.08.46.17.37.23.51.55.42.95-.08.34-.28.63-.59.86-.1.08-.5.29-1.21.63-.81.37-1.51.94-2.09 1.71-.59.77-.99 1.64-1.22 2.61l-3.51 15.17c-.6 2.6-1.7 4.74-3.31 6.41-1.17 1.24-2.67 2.23-4.5 2.97-.91.36-1.95.64-3.14.81zM392.56 245.77l-7.34 31.71H373.62c-.59 0-1.02-.11-1.29-.32s-.36-.51-.27-.89c.15-.63.57-1.05 1.28-1.25.58-.17.92-.27 1.02-.31.1-.04.22-.13.35-.27.25-.25.44-.64.57-1.19l5.38-23.25c.12-.54.12-.94-.02-1.18-.07-.14-.14-.23-.22-.27s-.37-.14-.88-.31c-.61-.2-.84-.62-.7-1.25.09-.39.32-.69.69-.89s.85-.31 1.44-.31h.64l10.95-.02zm-5.12 31.71l.58-2.51c1.1-.15 2.04-.37 2.8-.65.76-.28 1.56-.7 2.4-1.28.84-.57 1.54-1.17 2.1-1.78.56-.61 1.14-1.42 1.76-2.43.29-.5.56-.83.8-1.01.24-.18.53-.27.88-.27.46 0 .75.13.87.38s.11.7-.04 1.33l-1.9 8.2-10.25.02zm3.27-14.8l.62-2.7c1.05-.43 1.87-.91 2.45-1.42.58-.51 1.07-1.19 1.48-2.04.27-.59.53-.99.8-1.22.26-.22.59-.34.99-.34.53 0 .84.19.95.58.07.2.02.66-.14 1.37l-2.05 8.85c-.17.73-.37 1.23-.61 1.51s-.59.42-1.05.42c-.38 0-.65-.11-.81-.33-.16-.22-.25-.58-.26-1.09-.03-1.07-.24-1.89-.62-2.46-.38-.56-.97-.94-1.75-1.13zm4.04-16.91h9.93l-1.9 8.22c-.11.48-.29.83-.54 1.05s-.58.33-1.01.32c-.36 0-.61-.07-.74-.21-.13-.14-.22-.43-.27-.86-.21-1.8-.81-3.17-1.79-4.11-.99-.94-2.42-1.51-4.3-1.7l.62-2.71zM411.92 275.47l-.61 2.65c-1.35 0-2.75-.37-4.21-1.09-.55-.26-.93-.43-1.14-.51s-.42-.12-.64-.12c-.33 0-.59.05-.77.15-.19.1-.51.35-.96.76-.38.34-.73.51-1.08.51-.92 0-1.22-.67-.92-2l1.96-8.46c.1-.43.32-.8.65-1.1s.7-.46 1.1-.47c.36-.01.62.08.78.29s.25.58.27 1.1c.07 1.33.33 2.58.77 3.74.45 1.16 1.05 2.15 1.82 2.95.78.83 1.77 1.36 2.98 1.6zm8.3-30.32l-.62 2.67c-1.08.26-1.95.67-2.61 1.22s-1.08 1.23-1.27 2.03c-.18.77-.12 1.45.19 2.03.31.58.9 1.14 1.78 1.66.61.36 2.01 1.04 4.21 2.05 1.34.6 2.36 1.15 3.06 1.64.7.49 1.33 1.1 1.88 1.82 1.49 1.92 1.93 4.21 1.32 6.85-.46 2-1.41 3.82-2.84 5.48-1.43 1.66-3.18 2.96-5.24 3.9-1.1.5-2.27.89-3.51 1.17-1.24.29-2.37.43-3.39.43l.61-2.65c1.5-.32 2.64-.78 3.41-1.36.77-.58 1.26-1.37 1.49-2.36.24-1.04-.04-1.95-.84-2.74-.54-.51-1.64-1.15-3.3-1.91-1.83-.84-3.07-1.43-3.74-1.79-.67-.36-1.29-.77-1.87-1.25-2.61-2.08-3.51-4.84-2.71-8.29.41-1.77 1.17-3.4 2.29-4.89 1.12-1.49 2.47-2.7 4.06-3.61 2.22-1.26 4.77-1.96 7.64-2.1zm1.33 2.67l.59-2.56c.97.06 1.8.18 2.48.36.68.18 1.63.53 2.83 1.06.3.12.56.19.77.19.31 0 .57-.1.76-.3l.7-.67c.34-.34.7-.51 1.08-.51.44 0 .73.15.87.45.13.3.13.78-.02 1.43l-1.77 7.67c-.1.45-.33.82-.66 1.1-.34.29-.72.43-1.15.43-.33 0-.61-.1-.84-.3-.12-.12-.2-.28-.25-.45-.05-.18-.07-.48-.05-.89-.01-.76-.14-1.54-.39-2.35-.26-.8-.61-1.52-1.05-2.16-.91-1.26-2.21-2.09-3.9-2.5zM435.96 245.78h6.48l-.65 2.81c-.87.42-1.59.95-2.17 1.6-.95 1.05-1.71 2.3-2.29 3.74l-.57 1.42c-.19.45-.44.8-.78 1.06-.33.26-.7.38-1.11.38-.43 0-.74-.14-.95-.42-.21-.28-.26-.64-.15-1.09l2.19-9.5zm19.41.01l-6.31 27.29c-.14.6-.12 1.04.07 1.3.1.16.2.25.3.29.11.04.46.13 1.07.29.75.17 1.04.6.89 1.28-.09.4-.38.73-.87.97-.36.19-.9.28-1.64.28H436.27c-.72 0-1.25-.11-1.57-.31-.32-.21-.43-.52-.34-.94.16-.68.65-1.11 1.48-1.28.68-.16 1.08-.25 1.2-.29s.26-.13.41-.29c.31-.26.53-.7.67-1.3l6.31-27.29h10.94zm8.53 0l-2.2 9.5c-.1.45-.32.81-.66 1.09s-.72.42-1.14.42c-.41 0-.72-.13-.93-.38s-.31-.61-.28-1.06l.08-1.42c.09-1.44-.1-2.69-.56-3.74-.29-.65-.77-1.19-1.43-1.6l.65-2.81h6.47zM480.38 245.8l-6.31 27.29c-.14.6-.12 1.04.07 1.3.1.16.2.25.3.29.11.04.46.14 1.07.29.75.17 1.04.6.89 1.28-.09.4-.38.73-.87.98-.36.19-.89.28-1.62.28h-12.47c-.59 0-1.02-.11-1.29-.31-.27-.21-.36-.51-.27-.89.15-.63.57-1.05 1.28-1.25.58-.17.92-.27 1.02-.31.1-.04.22-.13.35-.27.25-.25.44-.64.57-1.19l5.38-23.25c.12-.54.12-.94-.02-1.18-.07-.14-.14-.23-.22-.27s-.37-.14-.88-.31c-.61-.2-.84-.62-.7-1.25.09-.39.32-.69.69-.89.37-.2.85-.31 1.44-.31h.64l10.95-.03zm3.82 16.17c1.46.22 2.57.46 3.32.72.75.26 1.4.62 1.96 1.07.58.48.98 1.05 1.19 1.72.22.67.24 1.37.07 2.12l-1.11 4.81c-.12.5 0 .74.34.74.13 0 .25-.04.36-.1.11-.07.27-.21.48-.41.53-.53 1.01-.79 1.44-.79.28 0 .53.14.74.42.21.28.29.56.22.84-.11.48-.49 1.06-1.13 1.75-.64.69-1.39 1.3-2.24 1.85-.79.51-1.61.88-2.45 1.1-.84.22-1.79.34-2.86.34-2.17 0-3.72-.59-4.67-1.76-.94-1.17-1.17-2.8-.69-4.89l.9-3.9c.2-.87.31-1.37.32-1.51.06-.62-.04-1.15-.32-1.6-.35-.54-.96-.86-1.82-.95l.58-2.49c.92-.12 1.6-.34 2.05-.65.39-.28.69-.6.9-.95.21-.36.39-.88.55-1.58l1.42-6.16c.23-.98.19-1.7-.1-2.18-.29-.48-.93-.86-1.92-1.14l.6-2.58h.64c1.82 0 3.36.06 4.61.19 1.87.17 3.43.76 4.69 1.77 1.82 1.44 2.42 3.49 1.8 6.16-.51 2.18-1.64 3.97-3.41 5.37-.74.59-1.57 1.07-2.46 1.44-.91.35-2.24.77-4 1.23zM508.34 277.52h-11.63c-.59 0-1.02-.11-1.29-.31-.27-.21-.36-.51-.27-.89.15-.63.57-1.05 1.28-1.25.58-.17.92-.27 1.02-.31.1-.04.21-.13.35-.27.25-.25.44-.64.57-1.19l5.38-23.25c.12-.54.12-.94-.02-1.18-.07-.14-.14-.23-.22-.27s-.37-.14-.88-.31c-.61-.2-.84-.62-.7-1.25.09-.39.32-.69.69-.89.37-.2.85-.31 1.44-.31H516.33c.59 0 1.02.11 1.29.31s.36.51.27.89c-.15.63-.57 1.05-1.28 1.25-.58.17-.92.27-1.02.31s-.21.13-.35.27c-.25.25-.44.64-.57 1.18l-5.38 23.25c-.12.54-.12.94.02 1.19.07.14.14.23.22.27s.38.14.88.31c.61.2.84.62.7 1.25-.09.39-.32.69-.69.89-.37.21-.85.31-1.44.31h-.64zM529.01 251.72l.14 4.81-7.83 15c-.23.43-.39.83-.48 1.21-.23.98.1 1.67.97 2.09l.78.37c.49.23.67.62.54 1.16-.18.77-.87 1.16-2.07 1.16h-6.26c-.61 0-1.06-.12-1.36-.36-.3-.24-.4-.57-.3-.99.1-.45.55-.82 1.34-1.12.74-.28 1.29-.53 1.67-.75.37-.22.75-.53 1.14-.92.61-.63 1.18-1.48 1.72-2.53l10-19.13zm3.07-5.9h9.93l.53 27.3c.02.48.07.91.15 1.28.08.29.35.53.82.72.39.17.64.34.77.51s.15.4.08.7c-.19.81-.92 1.21-2.2 1.21h-12.29c-.49 0-.86-.11-1.11-.34-.24-.23-.32-.52-.24-.9.07-.31.19-.54.36-.7.17-.15.51-.35 1.02-.58.36-.15.63-.33.81-.51.18-.18.29-.42.36-.7.06-.26.09-.5.09-.7l-.01-3.37h-6.87l1.3-2.76h5.52l-.16-18.89 1.14-2.27zM555.17 253.98l1.67 4.09-2.88 12.45c-.25 1.08-.26 1.97-.04 2.67s.7 1.27 1.44 1.72l.65.39c.37.23.51.58.4 1.05-.08.36-.31.65-.67.88-.31.2-.87.3-1.69.3h-5.69c-1.5 0-2.15-.4-1.96-1.21.06-.28.19-.5.39-.66.19-.16.58-.38 1.18-.66 1.77-.82 2.9-2.31 3.4-4.48l3.8-16.54zm12.21-8.15l8.14 21.47-2.37 10.24h-6.72l-10.44-27.18c-.22-.59-.43-1-.6-1.23-.18-.23-.43-.4-.77-.51l-.86-.33c-.23-.08-.39-.22-.49-.42-.1-.2-.12-.43-.07-.67.06-.26.19-.51.39-.73.2-.22.43-.38.7-.48.3-.11 1.07-.16 2.3-.16h10.79zm9 17.75l-1.65-4.16 1.49-6.43c.3-1.3.33-2.3.09-2.98-.24-.69-.82-1.28-1.72-1.78-.31-.16-.51-.32-.6-.5-.09-.18-.1-.41-.04-.68.1-.42.31-.72.64-.92.33-.19.82-.29 1.46-.29h6.16c.84 0 1.36.12 1.56.37.22.25.29.54.21.88-.08.33-.21.57-.4.73-.19.16-.62.38-1.27.66-.97.42-1.77 1.06-2.42 1.93-.46.63-.81 1.49-1.07 2.58l-2.44 10.59z"/></svg>