<?xml version="1.0" encoding="utf-8"?>
<!-- Generator: Adobe Illustrator 16.0.0, SVG Export Plug-In . SVG Version: 6.00 Build 0)  -->
<!DOCTYPE svg PUBLIC "-//W3C//DTD SVG 1.1//EN" "http://www.w3.org/Graphics/SVG/1.1/DTD/svg11.dtd">
<svg version="1.1" id="Layer_1" xmlns="http://www.w3.org/2000/svg" xmlns:xlink="http://www.w3.org/1999/xlink" x="0px" y="0px"
	 width="671.06px" height="288.35px" viewBox="0 0 671.06 288.35" style="enable-background:new 0 0 671.06 288.35;"
	 xml:space="preserve">
<g>
	<path style="fill:#000000;" d="M69.13,143.47c-0.76,3.72-2.54,7.08-5.36,10.09c-2.82,3.01-6.34,5.34-10.56,7
		c-1.29,0.51-2.62,0.93-4.01,1.25c-1.38,0.32-2.93,0.57-4.65,0.76c-1.72,0.19-3.66,0.33-5.81,0.43c-2.16,0.1-4.69,0.14-7.58,0.14
		l-23.89-0.02l13.69-67.25l24.63,0.02c2.9,0,5.34,0.04,7.3,0.1c1.96,0.07,3.66,0.18,5.08,0.34c1.42,0.16,2.65,0.4,3.71,0.72
		c1.06,0.32,2.12,0.74,3.2,1.25c5.52,2.63,7.65,7.06,6.38,13.27c-0.72,3.52-2.36,6.44-4.94,8.74c-2.58,2.3-6.49,4.38-11.73,6.23
		c1.66,0.19,3.17,0.52,4.52,0.96c1.35,0.45,2.59,0.96,3.72,1.54c2.66,1.41,4.55,3.34,5.66,5.77
		C69.59,137.26,69.81,140.15,69.13,143.47z M48.38,142.11c0.39-1.92,0.31-3.57-0.23-4.95c-0.55-1.38-1.55-2.39-3.01-3.03
		c-0.66-0.32-1.53-0.53-2.61-0.63c-1.07-0.1-2.57-0.15-4.49-0.15h-3.97l-3.85,18.93h2.98c2.58,0,4.58-0.15,6.01-0.47
		c1.42-0.32,2.79-0.93,4.1-1.82C46.01,148.06,47.71,145.44,48.38,142.11z M52,114.15c0.33-1.6,0.23-2.98-0.29-4.13
		c-0.52-1.15-1.39-1.99-2.6-2.5c-0.61-0.26-1.38-0.43-2.31-0.53c-0.94-0.1-2.29-0.15-4.07-0.15h-3.26l-3.19,15.66h2.67
		c1.91,0,3.49-0.11,4.76-0.33c1.26-0.22,2.38-0.62,3.35-1.2c1.27-0.77,2.35-1.76,3.22-2.98C51.15,116.78,51.73,115.49,52,114.15z"/>
	<path style="fill:#000000;" d="M114.24,164.37l-5.96-27.49l-5.33-0.01L97.6,163.2l-20.73-0.02l13.69-67.25l26.85,0.03
		c2.96,0,5.5,0.07,7.61,0.2s3.94,0.34,5.5,0.63c1.55,0.29,2.91,0.68,4.06,1.16c1.15,0.48,2.21,1.11,3.17,1.88
		c2.16,1.67,3.63,3.83,4.4,6.49c0.77,2.66,0.83,5.62,0.17,8.89c-1.66,8.14-7.16,14.31-16.51,18.53l10.6,28.46L114.24,164.37z
		 M122.62,116.43c0.34-1.67,0.35-3.12,0.05-4.37c-0.31-1.25-0.92-2.19-1.84-2.84c-0.75-0.51-1.75-0.88-2.98-1.11
		c-1.24-0.23-2.94-0.34-5.11-0.34h-3.85l-3.72,18.25h3.65c2.5,0,4.44-0.16,5.82-0.47c1.38-0.32,2.62-0.93,3.73-1.82
		c1.02-0.83,1.91-1.89,2.67-3.17C121.79,119.28,122.32,117.9,122.62,116.43z"/>
	<path style="fill:#000000;" d="M188.7,163.29l-2.14-16.14l-21.42-0.02l-10,16.13l-16.19-0.02l41.82-67.23l17.47,0.02l12.47,67.28
		L188.7,163.29z M182.83,115.52l-12.08,21.03l14.71,0.01L182.83,115.52z"/>
	<path style="fill:#000000;" d="M291.35,128.02c-1.26,6.21-3.71,11.83-7.33,16.86s-8.15,9.07-13.58,12.14
		c-3.88,2.24-8.09,3.85-12.63,4.84c-4.54,0.99-9.81,1.48-15.8,1.47l-23-0.02l13.69-67.25l21.81,0.02c2.43,0,4.41,0,5.92,0.01
		c1.58,0,2.91,0.04,3.98,0.1c1.07,0.07,2.04,0.16,2.9,0.29c0.86,0.13,1.87,0.29,3.01,0.48c4.12,0.77,7.69,2.06,10.72,3.85
		c3.02,1.8,5.43,4.03,7.23,6.69c1.79,2.66,2.96,5.72,3.51,9.18C292.32,120.15,292.18,123.93,291.35,128.02z M269.55,128.38
		c0.79-3.86,0.85-7.24,0.19-10.14c-0.66-2.9-2.08-5.15-4.25-6.76c-1.32-0.96-2.81-1.66-4.46-2.08c-1.66-0.42-3.87-0.63-6.63-0.63
		h-3.55l-8.53,41.89h3.16c3.36,0,6.17-0.33,8.45-1.01c2.27-0.67,4.37-1.81,6.27-3.42c2.14-1.8,4.05-4.31,5.73-7.52
		C267.6,135.49,268.81,132.05,269.55,128.38z"/>
	<path style="fill:#000000;" d="M369.52,129.54c-1,4.93-2.75,9.53-5.22,13.79c-2.48,4.26-5.52,7.97-9.13,11.14
		c-3.61,3.17-7.71,5.65-12.32,7.44c-4.61,1.79-9.51,2.68-14.71,2.68c-5.2-0.01-9.74-0.91-13.62-2.7c-3.88-1.8-7-4.25-9.36-7.36
		c-2.36-3.11-3.92-6.79-4.66-11.05c-0.75-4.26-0.62-8.86,0.39-13.79c1.03-5.06,2.85-9.72,5.46-13.98c2.61-4.26,5.79-7.92,9.54-10.99
		s7.95-5.45,12.61-7.15c4.66-1.69,9.58-2.54,14.78-2.53c4.74,0,8.95,0.87,12.65,2.61c3.7,1.73,6.73,4.14,9.09,7.22
		c2.37,3.08,3.96,6.73,4.78,10.96C370.62,120.03,370.53,124.61,369.52,129.54z M347.69,130.1c1.46-7.17,1.5-12.48,0.13-15.9
		c-1.38-3.43-4.23-5.15-8.58-5.15c-2.76,0-5.11,0.7-7.04,2.11c-1.93,1.41-3.55,3.15-4.87,5.23c-1.31,2.08-2.35,4.34-3.1,6.77
		c-0.76,2.43-1.34,4.64-1.74,6.63c-0.42,2.05-0.74,4.29-0.97,6.73c-0.23,2.44-0.12,4.69,0.35,6.78c0.46,2.08,1.38,3.81,2.74,5.19
		c1.36,1.38,3.46,2.07,6.29,2.07C339.31,150.56,344.92,143.74,347.69,130.1z"/>
	<path style="fill:#000000;" d="M423.03,163.52l-23.55-38.08l-7.74,38.05l-16.29-0.02l13.69-67.25l14.41,0.01l22.4,37.4l7.61-37.37
		l16.29,0.02l-13.69,67.25L423.03,163.52z"/>
</g>
<path style="fill:#E42830;" d="M654.39,27.1c3.33-6.67,7.67-12,7.67-15s-0.67-3.33-1.67-3s-5.33,3.33-8,4.33
	c-2.67,1-8,6.33-14.67,14.33s-19.67,11-23.33,12.33c-3.66,1.33-5.33,4-11,0.67c-5.67-3.33-25.33-10.66-46.66-13.66s-47.67-2-63,0.33
	s-61.67,18-65.33,18.67s-23.67-0.33-29.67-1.67c-4.95-1.1-21.32-4.74-26.92-5.99c-32.9-8.4-70.56-13.18-110.58-13.18
	c-28.05,0-54.93,2.34-79.83,6.64c18.44-2.05,37.76-3.14,57.67-3.14c128.31,0,232.33,45.22,232.33,101s-104.02,101-232.33,101
	c-64.09,0-122.12-11.28-164.15-29.53c42.48,26.73,110.12,44.03,186.32,44.03c63.71,0,121.43-12.09,163.47-31.68
	c27.03-13.82,36.7-17.49,59.7-32.82c9.88-6.59,21-20.25,27-26.75s10.5-9,14-11.75s5.75,3.5,10.75,8.5s6.25,9.25,12.25,17.5
	s19.75,31.25,25.25,40s10.75,17.5,11.75,20s0.75,10.25,0.25,13s1.75,8.25,3,11.25s-0.25,7,0,10.75s10.75,7.25,13,8s6.5,0.5,9.25-0.5
	s2.5-1.75,4-3.75s2.5-1.25,3.5-0.5s2.75,0.75,6-0.25s3,0.5,8.25-2s10.5-6.5,15.25-12.75s4-18.75,3-22.75s-2.25-2.5-2.5-6.25
	s0.25-4.75,0.25-8.75s-0.5-8.75-1.75-16.75s-1.75-17.5-2.38-19.75s-1.5-4-1.75-6.75s0.12-45.12,0.12-47.88s-0.25-4.12-0.38-5
	c-0.13-0.88-1.88-2.88-2.12-4c-0.24-1.12,0.25-3.62,0.88-6.62c0.25,1.75,0.38,3.12,0.62,4.88c0.24,1.76,0.88,3.38,1.62,4.12
	c0.74,0.74,0.88,1.41,1.54,4.75c0.67,3.33,1.33,4.67,1.33,4.67c1.33,2,3-3,3.33-7s1.67-5.67,2-11.67s0-12.33-0.33-18.33
	s-2.67-19.67-4-23.33s-5.33-8.67-6.67-11.67s0-4.67,1-7.33S651.06,33.77,654.39,27.1z"/>
<g>
	<path style="fill:#000000;" d="M296.52,245.74l-7.34,31.71h-10.96h-0.64c-0.59,0-1.02-0.11-1.29-0.31
		c-0.27-0.21-0.36-0.51-0.27-0.89c0.15-0.63,0.57-1.05,1.28-1.25c0.58-0.17,0.92-0.27,1.02-0.31s0.22-0.13,0.35-0.27
		c0.25-0.25,0.44-0.64,0.57-1.19l5.38-23.25c0.13-0.54,0.12-0.94-0.02-1.18c-0.07-0.14-0.14-0.23-0.22-0.27s-0.37-0.14-0.88-0.31
		c-0.61-0.2-0.84-0.62-0.7-1.25c0.09-0.39,0.32-0.69,0.69-0.89c0.37-0.2,0.85-0.31,1.44-0.31h0.64L296.52,245.74z M291.4,277.45
		l0.58-2.51c1.1-0.15,2.04-0.37,2.8-0.65c0.76-0.28,1.56-0.71,2.4-1.28c0.84-0.57,1.54-1.17,2.1-1.78c0.56-0.61,1.15-1.42,1.76-2.43
		c0.3-0.5,0.56-0.83,0.8-1.01c0.24-0.18,0.53-0.27,0.88-0.27c0.46,0,0.75,0.13,0.87,0.38c0.12,0.26,0.11,0.7-0.04,1.33l-1.9,8.2
		L291.4,277.45z M294.67,262.65l0.62-2.7c1.05-0.43,1.87-0.91,2.45-1.42c0.58-0.51,1.07-1.19,1.48-2.04
		c0.27-0.59,0.53-0.99,0.8-1.22c0.26-0.22,0.59-0.34,0.99-0.34c0.53,0,0.84,0.19,0.95,0.58c0.07,0.2,0.02,0.66-0.15,1.37l-2.05,8.85
		c-0.17,0.73-0.37,1.23-0.61,1.51c-0.24,0.28-0.59,0.42-1.05,0.42c-0.38,0-0.65-0.11-0.81-0.33s-0.25-0.58-0.26-1.09
		c-0.03-1.07-0.24-1.89-0.63-2.46C296.03,263.22,295.45,262.84,294.67,262.65z M298.71,245.74h9.93l-1.9,8.22
		c-0.11,0.48-0.29,0.83-0.54,1.05s-0.58,0.33-1.01,0.33c-0.36,0-0.61-0.07-0.74-0.21c-0.13-0.14-0.22-0.43-0.27-0.86
		c-0.21-1.8-0.81-3.17-1.79-4.11c-0.99-0.95-2.42-1.51-4.3-1.7L298.71,245.74z"/>
	<path style="fill:#000000;" d="M325.34,247.63c-0.9,0.28-1.58,0.66-2.04,1.14c-0.46,0.48-0.79,1.18-1.01,2.11l-4.8,20.77
		c-0.32,1.36-0.34,2.32-0.08,2.88c0.2,0.46,0.69,0.8,1.47,1l-0.59,2.55c-3.58-0.28-6.34-1.57-8.27-3.88
		c-2.51-3.01-3.14-7.19-1.89-12.57c0.62-2.7,1.61-5.13,2.96-7.31c1.35-2.18,3.03-4.02,5.04-5.54c1.53-1.16,3.1-2.04,4.7-2.65
		c1.6-0.6,3.3-0.94,5.09-1.02L325.34,247.63z M329.57,274.81c0.48,0.57,1.21,0.86,2.22,0.86c0.58,0,1.12-0.1,1.62-0.3
		c0.45-0.17,0.76-0.25,0.92-0.25c0.2,0,0.36,0.1,0.48,0.31c0.12,0.21,0.16,0.44,0.1,0.68c-0.11,0.5-0.63,1.01-1.54,1.56
		c-1.63,0.94-3.19,1.42-4.69,1.42c-1.97,0-3.41-0.57-4.31-1.72c-1.19,0.37-2.54,0.62-4.06,0.74l0.6-2.58
		c0.38-0.08,0.66-0.16,0.86-0.25c0.19-0.08,0.42-0.23,0.68-0.43l-0.15-0.19c-0.33-0.51-0.6-0.86-0.84-1.06
		c-0.23-0.19-0.54-0.32-0.92-0.38c-0.49-0.09-0.8-0.17-0.92-0.22c-0.13-0.05-0.22-0.15-0.29-0.29c-0.12-0.19-0.15-0.41-0.09-0.67
		c0.1-0.43,0.38-0.77,0.83-1.02c0.45-0.25,1.01-0.37,1.69-0.37c0.54,0,1,0.05,1.36,0.14s0.73,0.25,1.11,0.49l4.72-20.4
		c0.19-0.82,0.19-1.47,0.01-1.95c-0.12-0.33-0.3-0.58-0.52-0.77c-0.23-0.19-0.58-0.36-1.05-0.54l0.58-2.51
		c1.76,0.08,3.3,0.42,4.63,1.02s2.49,1.49,3.49,2.65c2.63,3.1,3.32,7.39,2.05,12.87C336.8,267.32,333.96,271.7,329.57,274.81z"/>
	<path style="fill:#000000;" d="M341.87,268.19l4.21-18.21c0.13-0.54,0.12-0.94-0.02-1.18c-0.07-0.14-0.14-0.23-0.22-0.27
		s-0.37-0.14-0.88-0.31c-0.61-0.2-0.84-0.61-0.7-1.23c0.09-0.4,0.32-0.71,0.69-0.92s0.85-0.31,1.44-0.31h0.64h10.99h0.64l0.87,0.09
		c0.26,0.08,0.46,0.22,0.59,0.42c0.13,0.2,0.17,0.44,0.11,0.72c-0.14,0.62-0.57,1.03-1.27,1.23c-0.58,0.17-0.92,0.27-1.02,0.31
		c-0.1,0.04-0.22,0.13-0.35,0.27c-0.25,0.25-0.44,0.64-0.57,1.18l-4.51,19.49c-0.3,1.32-0.48,2.23-0.53,2.75
		c-0.05,0.52,0,0.99,0.13,1.41c0.12,0.39,0.3,0.67,0.52,0.84s0.68,0.36,1.37,0.58l-0.7,3.04h-0.54c-2.13,0-3.87-0.18-5.2-0.54
		c-1.56-0.42-2.87-1.04-3.93-1.86c-1.06-0.82-1.73-1.74-2.02-2.76C341.3,271.85,341.39,270.27,341.87,268.19z M355.57,278.1
		l0.7-3.04c1.69-0.2,3.21-0.83,4.55-1.9c1.53-1.22,2.56-2.98,3.09-5.27l3.5-15.15c0.49-2.12-0.03-3.6-1.56-4.44
		c-0.45-0.25-0.74-0.46-0.85-0.64c-0.11-0.18-0.13-0.44-0.05-0.78c0.09-0.4,0.31-0.69,0.67-0.86c0.35-0.17,0.88-0.25,1.59-0.25h6.04
		c0.51,0,0.85,0.01,1.01,0.04c0.17,0.02,0.32,0.08,0.46,0.17c0.37,0.23,0.51,0.55,0.42,0.95c-0.08,0.34-0.28,0.63-0.59,0.86
		c-0.1,0.08-0.5,0.29-1.21,0.63c-0.81,0.37-1.51,0.94-2.09,1.71c-0.59,0.77-0.99,1.64-1.22,2.61l-3.51,15.17
		c-0.6,2.6-1.7,4.74-3.31,6.41c-1.17,1.24-2.67,2.23-4.5,2.97C357.8,277.65,356.76,277.93,355.57,278.1z"/>
	<path style="fill:#000000;" d="M392.56,245.77l-7.34,31.71h-10.96h-0.64c-0.59,0-1.02-0.11-1.29-0.32s-0.36-0.51-0.27-0.89
		c0.15-0.63,0.57-1.05,1.28-1.25c0.58-0.17,0.92-0.27,1.02-0.31c0.1-0.04,0.22-0.13,0.35-0.27c0.25-0.25,0.44-0.64,0.57-1.19
		l5.38-23.25c0.12-0.54,0.12-0.94-0.02-1.18c-0.07-0.14-0.14-0.23-0.22-0.27s-0.37-0.14-0.88-0.31c-0.61-0.2-0.84-0.62-0.7-1.25
		c0.09-0.39,0.32-0.69,0.69-0.89s0.85-0.31,1.44-0.31h0.64L392.56,245.77z M387.44,277.48l0.58-2.51c1.1-0.15,2.04-0.37,2.8-0.65
		c0.76-0.28,1.56-0.7,2.4-1.28c0.84-0.57,1.54-1.17,2.1-1.78c0.56-0.61,1.14-1.42,1.76-2.43c0.29-0.5,0.56-0.83,0.8-1.01
		c0.24-0.18,0.53-0.27,0.88-0.27c0.46,0,0.75,0.13,0.87,0.38s0.11,0.7-0.04,1.33l-1.9,8.2L387.44,277.48z M390.71,262.68l0.62-2.7
		c1.05-0.43,1.87-0.91,2.45-1.42c0.58-0.51,1.07-1.19,1.48-2.04c0.27-0.59,0.53-0.99,0.8-1.22c0.26-0.22,0.59-0.34,0.99-0.34
		c0.53,0,0.84,0.19,0.95,0.58c0.07,0.2,0.02,0.66-0.14,1.37l-2.05,8.85c-0.17,0.73-0.37,1.23-0.61,1.51
		c-0.24,0.28-0.59,0.42-1.05,0.42c-0.38,0-0.65-0.11-0.81-0.33c-0.16-0.22-0.25-0.58-0.26-1.09c-0.03-1.07-0.24-1.89-0.62-2.46
		C392.08,263.25,391.49,262.87,390.71,262.68z M394.75,245.77h9.93l-1.9,8.22c-0.11,0.48-0.29,0.83-0.54,1.05s-0.58,0.33-1.01,0.32
		c-0.36,0-0.61-0.07-0.74-0.21c-0.13-0.14-0.22-0.43-0.27-0.86c-0.21-1.8-0.81-3.17-1.79-4.11c-0.99-0.94-2.42-1.51-4.3-1.7
		L394.75,245.77z"/>
	<path style="fill:#000000;" d="M411.92,275.47l-0.61,2.65c-1.35,0-2.75-0.37-4.21-1.09c-0.55-0.26-0.93-0.43-1.14-0.51
		s-0.42-0.12-0.64-0.12c-0.33,0-0.59,0.05-0.77,0.15c-0.19,0.1-0.51,0.35-0.96,0.76c-0.38,0.34-0.73,0.51-1.08,0.51
		c-0.92,0-1.22-0.67-0.92-2l1.96-8.46c0.1-0.43,0.32-0.8,0.65-1.1s0.7-0.46,1.1-0.47c0.36-0.01,0.62,0.08,0.78,0.29
		s0.25,0.58,0.27,1.1c0.07,1.33,0.33,2.58,0.77,3.74c0.45,1.16,1.05,2.15,1.82,2.95C409.72,274.7,410.71,275.23,411.92,275.47z
		 M420.22,245.15l-0.62,2.67c-1.08,0.26-1.95,0.67-2.61,1.22s-1.08,1.23-1.27,2.03c-0.18,0.77-0.12,1.45,0.19,2.03
		c0.31,0.58,0.9,1.14,1.78,1.66c0.61,0.36,2.01,1.04,4.21,2.05c1.34,0.6,2.36,1.15,3.06,1.64c0.7,0.49,1.33,1.1,1.88,1.82
		c1.49,1.92,1.93,4.21,1.32,6.85c-0.46,2-1.41,3.82-2.84,5.48c-1.43,1.66-3.18,2.96-5.24,3.9c-1.1,0.5-2.27,0.89-3.51,1.17
		c-1.24,0.29-2.37,0.43-3.39,0.43l0.61-2.65c1.5-0.32,2.64-0.78,3.41-1.36c0.77-0.58,1.26-1.37,1.49-2.36
		c0.24-1.04-0.04-1.95-0.84-2.74c-0.54-0.51-1.64-1.15-3.3-1.91c-1.83-0.84-3.07-1.43-3.74-1.79c-0.67-0.36-1.29-0.77-1.87-1.25
		c-2.61-2.08-3.51-4.84-2.71-8.29c0.41-1.77,1.17-3.4,2.29-4.89c1.12-1.49,2.47-2.7,4.06-3.61
		C414.8,245.99,417.35,245.29,420.22,245.15z M421.55,247.82l0.59-2.56c0.97,0.06,1.8,0.18,2.48,0.36c0.68,0.18,1.63,0.53,2.83,1.06
		c0.3,0.12,0.56,0.19,0.77,0.19c0.31,0,0.57-0.1,0.76-0.3l0.7-0.67c0.34-0.34,0.7-0.51,1.08-0.51c0.44,0,0.73,0.15,0.87,0.45
		c0.13,0.3,0.13,0.78-0.02,1.43l-1.77,7.67c-0.1,0.45-0.33,0.82-0.66,1.1c-0.34,0.29-0.72,0.43-1.15,0.43c-0.33,0-0.61-0.1-0.84-0.3
		c-0.12-0.12-0.2-0.28-0.25-0.45c-0.05-0.18-0.07-0.48-0.05-0.89c-0.01-0.76-0.14-1.54-0.39-2.35c-0.26-0.8-0.61-1.52-1.05-2.16
		C424.54,249.06,423.24,248.23,421.55,247.82z"/>
	<path style="fill:#000000;" d="M435.96,245.78h6.48l-0.65,2.81c-0.87,0.42-1.59,0.95-2.17,1.6c-0.95,1.05-1.71,2.3-2.29,3.74
		l-0.57,1.42c-0.19,0.45-0.44,0.8-0.78,1.06c-0.33,0.26-0.7,0.38-1.11,0.38c-0.43,0-0.74-0.14-0.95-0.42
		c-0.21-0.28-0.26-0.64-0.15-1.09L435.96,245.78z M455.37,245.79l-6.31,27.29c-0.14,0.6-0.12,1.04,0.07,1.3
		c0.1,0.16,0.2,0.25,0.3,0.29c0.11,0.04,0.46,0.13,1.07,0.29c0.75,0.17,1.04,0.6,0.89,1.28c-0.09,0.4-0.38,0.73-0.87,0.97
		c-0.36,0.19-0.9,0.28-1.64,0.28h-0.81h-10.99h-0.81c-0.72,0-1.25-0.11-1.57-0.31c-0.32-0.21-0.43-0.52-0.34-0.94
		c0.16-0.68,0.65-1.11,1.48-1.28c0.68-0.16,1.08-0.25,1.2-0.29s0.26-0.13,0.41-0.29c0.31-0.26,0.53-0.7,0.67-1.3l6.31-27.29H455.37z
		 M463.9,245.79l-2.2,9.5c-0.1,0.45-0.32,0.81-0.66,1.09s-0.72,0.42-1.14,0.42c-0.41,0-0.72-0.13-0.93-0.38s-0.31-0.61-0.28-1.06
		l0.08-1.42c0.09-1.44-0.1-2.69-0.56-3.74c-0.29-0.65-0.77-1.19-1.43-1.6l0.65-2.81H463.9z"/>
	<path style="fill:#000000;" d="M480.38,245.8l-6.31,27.29c-0.14,0.6-0.12,1.04,0.07,1.3c0.1,0.16,0.2,0.25,0.3,0.29
		c0.11,0.04,0.46,0.14,1.07,0.29c0.75,0.17,1.04,0.6,0.89,1.28c-0.09,0.4-0.38,0.73-0.87,0.98c-0.36,0.19-0.89,0.28-1.62,0.28h-0.84
		h-10.99h-0.64c-0.59,0-1.02-0.11-1.29-0.31c-0.27-0.21-0.36-0.51-0.27-0.89c0.15-0.63,0.57-1.05,1.28-1.25
		c0.58-0.17,0.92-0.27,1.02-0.31c0.1-0.04,0.22-0.13,0.35-0.27c0.25-0.25,0.44-0.64,0.57-1.19l5.38-23.25
		c0.12-0.54,0.12-0.94-0.02-1.18c-0.07-0.14-0.14-0.23-0.22-0.27s-0.37-0.14-0.88-0.31c-0.61-0.2-0.84-0.62-0.7-1.25
		c0.09-0.39,0.32-0.69,0.69-0.89c0.37-0.2,0.85-0.31,1.44-0.31h0.64L480.38,245.8z M484.2,261.97c1.46,0.22,2.57,0.46,3.32,0.72
		c0.75,0.26,1.4,0.62,1.96,1.07c0.58,0.48,0.98,1.05,1.19,1.72c0.22,0.67,0.24,1.37,0.07,2.12l-1.11,4.81
		c-0.12,0.5,0,0.74,0.34,0.74c0.13,0,0.25-0.04,0.36-0.1c0.11-0.07,0.27-0.21,0.48-0.41c0.53-0.53,1.01-0.79,1.44-0.79
		c0.28,0,0.53,0.14,0.74,0.42c0.21,0.28,0.29,0.56,0.22,0.84c-0.11,0.48-0.49,1.06-1.13,1.75c-0.64,0.69-1.39,1.3-2.24,1.85
		c-0.79,0.51-1.61,0.88-2.45,1.1c-0.84,0.22-1.79,0.34-2.86,0.34c-2.17,0-3.72-0.59-4.67-1.76c-0.94-1.17-1.17-2.8-0.69-4.89
		l0.9-3.9c0.2-0.87,0.31-1.37,0.32-1.51c0.06-0.62-0.04-1.15-0.32-1.6c-0.35-0.54-0.96-0.86-1.82-0.95l0.58-2.49
		c0.92-0.12,1.6-0.34,2.05-0.65c0.39-0.28,0.69-0.6,0.9-0.95c0.21-0.36,0.39-0.88,0.55-1.58l1.42-6.16c0.23-0.98,0.19-1.7-0.1-2.18
		c-0.29-0.48-0.93-0.86-1.92-1.14l0.6-2.58h0.64c1.82,0,3.36,0.06,4.61,0.19c1.87,0.17,3.43,0.76,4.69,1.77
		c1.82,1.44,2.42,3.49,1.8,6.16c-0.51,2.18-1.64,3.97-3.41,5.37c-0.74,0.59-1.57,1.07-2.46,1.44
		C487.29,261.09,485.96,261.51,484.2,261.97z"/>
	<path style="fill:#000000;" d="M508.34,277.52h-10.99h-0.64c-0.59,0-1.02-0.11-1.29-0.31c-0.27-0.21-0.36-0.51-0.27-0.89
		c0.15-0.63,0.57-1.05,1.28-1.25c0.58-0.17,0.92-0.27,1.02-0.31c0.1-0.04,0.21-0.13,0.35-0.27c0.25-0.25,0.44-0.64,0.57-1.19
		l5.38-23.25c0.12-0.54,0.12-0.94-0.02-1.18c-0.07-0.14-0.14-0.23-0.22-0.27s-0.37-0.14-0.88-0.31c-0.61-0.2-0.84-0.62-0.7-1.25
		c0.09-0.39,0.32-0.69,0.69-0.89c0.37-0.2,0.85-0.31,1.44-0.31h0.64h10.99h0.64c0.59,0,1.02,0.11,1.29,0.31
		c0.27,0.2,0.36,0.51,0.27,0.89c-0.15,0.63-0.57,1.05-1.28,1.25c-0.58,0.17-0.92,0.27-1.02,0.31s-0.21,0.13-0.35,0.27
		c-0.25,0.25-0.44,0.64-0.57,1.18l-5.38,23.25c-0.12,0.54-0.12,0.94,0.02,1.19c0.07,0.14,0.14,0.23,0.22,0.27s0.38,0.14,0.88,0.31
		c0.61,0.2,0.84,0.62,0.7,1.25c-0.09,0.39-0.32,0.69-0.69,0.89c-0.37,0.21-0.85,0.31-1.44,0.31H508.34z"/>
	<path style="fill:#000000;" d="M529.01,251.72l0.14,4.81l-7.83,15c-0.23,0.43-0.39,0.83-0.48,1.21c-0.23,0.98,0.1,1.67,0.97,2.09
		l0.78,0.37c0.49,0.23,0.67,0.62,0.54,1.16c-0.18,0.77-0.87,1.16-2.07,1.16h-6.26c-0.61,0-1.06-0.12-1.36-0.36
		c-0.3-0.24-0.4-0.57-0.3-0.99c0.1-0.45,0.55-0.82,1.34-1.12c0.74-0.28,1.29-0.53,1.67-0.75c0.37-0.22,0.75-0.53,1.14-0.92
		c0.61-0.63,1.18-1.48,1.72-2.53L529.01,251.72z M532.08,245.82h9.93l0.53,27.3c0.02,0.48,0.07,0.91,0.15,1.28
		c0.08,0.29,0.35,0.53,0.82,0.72c0.39,0.17,0.64,0.34,0.77,0.51s0.15,0.4,0.08,0.7c-0.19,0.81-0.92,1.21-2.2,1.21h-12.29
		c-0.49,0-0.86-0.11-1.11-0.34c-0.24-0.23-0.32-0.52-0.24-0.9c0.07-0.31,0.19-0.54,0.36-0.7c0.17-0.15,0.51-0.35,1.02-0.58
		c0.36-0.15,0.63-0.33,0.81-0.51c0.18-0.18,0.29-0.42,0.36-0.7c0.06-0.26,0.09-0.5,0.09-0.7l-0.01-3.37h-6.87l1.3-2.76h5.52
		l-0.16-18.89L532.08,245.82z"/>
	<path style="fill:#000000;" d="M555.17,253.98l1.67,4.09l-2.88,12.45c-0.25,1.08-0.26,1.97-0.04,2.67c0.22,0.7,0.7,1.27,1.44,1.72
		l0.65,0.39c0.37,0.23,0.51,0.58,0.4,1.05c-0.08,0.36-0.31,0.65-0.67,0.88c-0.31,0.2-0.87,0.3-1.69,0.3h-5.69
		c-1.5,0-2.15-0.4-1.96-1.21c0.06-0.28,0.19-0.5,0.39-0.66c0.19-0.16,0.58-0.38,1.18-0.66c1.77-0.82,2.9-2.31,3.4-4.48
		L555.17,253.98z M567.38,245.83l8.14,21.47l-2.37,10.24h-6.72l-10.44-27.18c-0.22-0.59-0.43-1-0.6-1.23
		c-0.18-0.23-0.43-0.4-0.77-0.51l-0.86-0.33c-0.23-0.08-0.39-0.22-0.49-0.42c-0.1-0.2-0.12-0.43-0.07-0.67
		c0.06-0.26,0.19-0.51,0.39-0.73c0.2-0.22,0.43-0.38,0.7-0.48c0.3-0.11,1.07-0.16,2.3-0.16H567.38z M576.38,263.58l-1.65-4.16
		l1.49-6.43c0.3-1.3,0.33-2.3,0.09-2.98c-0.24-0.69-0.82-1.28-1.72-1.78c-0.31-0.16-0.51-0.32-0.6-0.5
		c-0.09-0.18-0.1-0.41-0.04-0.68c0.1-0.42,0.31-0.72,0.64-0.92c0.33-0.19,0.82-0.29,1.46-0.29h6.16c0.84,0,1.36,0.12,1.56,0.37
		c0.22,0.25,0.29,0.54,0.21,0.88c-0.08,0.33-0.21,0.57-0.4,0.73c-0.19,0.16-0.62,0.38-1.27,0.66c-0.97,0.42-1.77,1.06-2.42,1.93
		c-0.46,0.63-0.81,1.49-1.07,2.58L576.38,263.58z"/>
</g>
</svg>
